<?xml version="1.0" encoding="UTF-8" standalone="no"?>
<!-- Generator: Adobe Illustrator 19.2.0, SVG Export Plug-In . SVG Version: 6.00 Build 0)  -->

<svg
   version="1.1"
   x="0px"
   y="0px"
   viewBox="0 0 512 512"
   enable-background="new 0 0 512 512"
   xml:space="preserve"
   id="svg27"
   sodipodi:docname="PowerPlayZipper.svg"
   inkscape:version="1.1 (c68e22c387, 2021-05-23)"
   inkscape:export-filename="D:\Projects\PowerPlayZipper\Images\PowerPlayZipper.120.png"
   inkscape:export-xdpi="22.5"
   inkscape:export-ydpi="22.5"
   xmlns:inkscape="http://www.inkscape.org/namespaces/inkscape"
   xmlns:sodipodi="http://sodipodi.sourceforge.net/DTD/sodipodi-0.dtd"
   xmlns="http://www.w3.org/2000/svg"
   xmlns:svg="http://www.w3.org/2000/svg"><defs
   id="defs31" /><sodipodi:namedview
   id="namedview29"
   pagecolor="#ffffff"
   bordercolor="#666666"
   borderopacity="1.0"
   inkscape:pageshadow="2"
   inkscape:pageopacity="0.0"
   inkscape:pagecheckerboard="0"
   showgrid="false"
   inkscape:zoom="1.7050781"
   inkscape:cx="239.87171"
   inkscape:cy="256"
   inkscape:window-width="1803"
   inkscape:window-height="1081"
   inkscape:window-x="203"
   inkscape:window-y="183"
   inkscape:window-maximized="0"
   inkscape:current-layer="svg27" />
<g
   id="Layer_2"
   transform="translate(0.4810997,25.805269)">
	<path
   fill="#0074a8"
   d="M 491,326 V 153.845 123.788 92.143 C 491,79.021 480.259,68 467.137,68 H 341.13 c -9.287,0 -17.723,5.603 -21.596,14.044 l -12.709,27.903 C 302.952,118.388 294.516,124 285.229,124 H 67.538 C 54.416,124 44,134.426 44,147.549 V 363.912 C 44,377.034 54.416,388 67.538,388 h 399.599 c 0.628,0 1.248,-0.36 1.863,-0.408 V 433 h 0.342 c 0,6 4.877,10.636 10.829,10.636 5.952,0 10.829,-4.967 10.829,-10.919 z"
   id="path21" />
</g>
<g
   id="Layer_3"
   transform="translate(0.4810997,25.805269)">
	<path
   fill="#59cafc"
   d="M 480.171,443.636 C 474.219,443.636 469.342,439 469.342,433 H 469 V 403.665 326 210.181 C 469,197.058 458.661,186 445.539,186 H 45.94 C 32.818,186 22,197.058 22,210.181 V 239.304 449.37 C 22,462.492 32.818,473 45.94,473 h 399.599 c 1.385,0 2.741,-0.06 4.061,-0.288 1.639,0.227 3.31,0.385 5.012,0.385 20.04,0 36.136,-16.229 36.136,-36.269 0,-0.534 -0.036,-1.058 -0.058,-1.586 -1.147,4.766 -5.435,8.394 -10.519,8.394 z"
   id="path24" />
</g>
<g
   id="g288"
   transform="translate(15.729607,0.58582239)"><path
     id="path120-4"
     style="stroke-width:0.705655"
     sodipodi:type="inkscape:offset"
     inkscape:radius="25.762976"
     inkscape:original="M 501.0293 36.34375 C 500.16297 36.337166 499.2647 36.719999 498.46484 37.619141 L 296.85742 264.2168 C 294.2089 267.19357 295.8532 272.73338 299.39648 272.77148 L 406.34375 273.92773 C 409.13156 273.95793 410.98015 277.59246 409.8457 280.81445 L 355.44336 435.30664 C 353.75674 440.09598 358.39868 444.43327 361.52344 440.98828 L 562.89844 219 C 565.60092 216.02165 563.92516 210.39739 560.33984 210.41406 L 443.19336 210.9707 C 440.29512 210.9842 438.41412 207.11251 439.73242 203.84766 L 504.48242 43.503906 C 505.94268 39.888096 503.62828 36.363503 501.0293 36.34375 z "
     transform="translate(-188.84765,1.7594502)"
     d="m 501.22461,10.582031 c -8.59081,-0.06529 -17.25522,4.57156 -22.00781,9.914063 L 277.60938,247.0918 c -8.35982,9.3959 -9.27592,20.48802 -6.50196,29.83398 2.77384,9.34555 12.85788,21.44344 28.00977,21.60742 L 376,299.36523 331.14258,426.75 c -4.11236,11.67749 -1.34733,24.62349 7.94726,33.30859 4.6473,4.34256 11.64404,7.96124 20.01954,7.93164 8.37549,-0.0296 16.77496,-4.4884 21.49609,-9.69335 l 201.37305,-221.98438 0.002,-0.002 c 8.55321,-9.42785 9.49281,-20.66958 6.6875,-30.08399 -2.80552,-9.41511 -13.165,-21.64722 -28.44727,-21.57617 a 25.765552,25.765552 0 0 0 -0.004,0.002 l -85.11133,0.4043 53.26562,-131.906249 c 7.1766,-17.770266 -1.37354,-42.372478 -27.14648,-42.56836 z M 443.07422,185.20703 c 0.007,-3e-5 0.0141,0.002 0.0215,0.002 h -0.0254 z" /><path
     fill="#ffb636"
     d="m 370.68624,212.36584 -117.14699,0.5563 c -2.89824,0.0135 -4.78,-3.85765 -3.4617,-7.1225 L 314.82903,45.455685 c 1.94701,-4.82108 -2.81919,-9.482648 -6.01861,-5.886083 L 107.20402,266.1675 c -2.64852,2.97677 -1.0052,8.51684 2.53808,8.55494 l 106.94698,1.15626 c 2.78781,0.0302 4.63757,3.66561 3.50312,6.8876 l -54.40276,154.49121 c -1.68662,4.78934 2.95471,9.12712 6.07947,5.68213 L 373.2444,220.95172 c 2.70248,-2.97835 1.02716,-8.60255 -2.55816,-8.58588 z"
     id="path120"
     style="stroke-width:0.705655" /></g></svg>
